<svg width="24" height="24" viewBox="0 0 24 24" fill="none" xmlns="http://www.w3.org/2000/svg">
<g id="akar-icons:dashboard">
<path id="Vector" d="M4 6.55556C4 6.143 4.16857 5.74733 4.46863 5.45561C4.76869 5.16389 5.17565 5 5.6 5H10.4V19H5.6C5.17565 19 4.76869 18.8361 4.46863 18.5444C4.16857 18.2527 4 17.857 4 17.4444V6.55556ZM13.6 5H18.4C18.8243 5 19.2313 5.16389 19.5314 5.45561C19.8314 5.74733 20 6.143 20 6.55556V10.4444H13.6V5ZM13.6 13.5556H20V17.4444C20 17.857 19.8314 18.2527 19.5314 18.5444C19.2313 18.8361 18.8243 19 18.4 19H13.6V13.5556Z" stroke="#B1D0FF" stroke-width="1.5" stroke-linecap="round" stroke-linejoin="round"/>
</g>
</svg>
