<svg width="24" height="24" viewBox="0 0 24 24" fill="none" xmlns="http://www.w3.org/2000/svg">
<g id="dashicons:admin-generic">
<path id="Vector" d="M20 13.4118H17.9482C17.7882 14.0706 17.5341 14.6824 17.1859 15.2282L18.6353 16.6776L16.6588 18.6541L15.2094 17.2047C14.6635 17.5435 14.0518 17.7976 13.4118 17.9482V20H10.5882V17.9482C9.94824 17.7976 9.33647 17.5435 8.79059 17.2047L7.34118 18.6541L5.34588 16.6588L6.79529 15.2094C6.45647 14.6635 6.20235 14.0518 6.05176 13.4118H4V10.6165H6.04235C6.19294 9.95765 6.45647 9.34588 6.79529 8.79059L5.34588 7.34118L7.32235 5.36471L8.77176 6.81412C9.31765 6.46588 9.93882 6.21176 10.5882 6.05176V4H13.4118V6.05176C14.0518 6.20235 14.6635 6.45647 15.2094 6.79529L16.6588 5.34588L18.6541 7.34118L17.2047 8.79059C17.5435 9.34588 17.8071 9.95765 17.9576 10.6165H20V13.4118ZM12 14.8235C13.5624 14.8235 14.8235 13.5624 14.8235 12C14.8235 10.4376 13.5624 9.17647 12 9.17647C10.4376 9.17647 9.17647 10.4376 9.17647 12C9.17647 13.5624 10.4376 14.8235 12 14.8235Z" fill="#B1D0FF"/>
</g>
</svg>
