<svg width="24" height="24" viewBox="0 0 24 24" fill="none" xmlns="http://www.w3.org/2000/svg">
<g id="fluent:table-multiple-20-filled">
<path id="Vector" d="M19.0001 15.5C19.0001 16.4283 18.6313 17.3185 17.975 17.9749C17.3187 18.6313 16.4285 19 15.5003 19H7.67177C8.44472 19.625 9.42866 20 10.5006 20H15.5003C16.6937 20 17.8382 19.5259 18.6821 18.682C19.5259 17.8381 20 16.6935 20 15.5V10.5C20.0018 9.47009 19.6486 8.47102 19.0001 7.671V15.5ZM6.50084 18H7.99975V14H4V15.5C4 16.163 4.26338 16.7989 4.73219 17.2678C5.201 17.7366 5.83784 18 6.50084 18ZM7.99975 9V13H4V9H7.99975ZM12.9994 13H8.99969V9H12.9994V13ZM8.99969 14H12.9994V18H8.99969V14ZM13.9994 9V13H17.9991V9H13.9994ZM13.9994 14H17.9991V15.5C17.9991 16.163 17.7357 16.7989 17.2669 17.2678C16.7981 17.7366 16.1623 18 15.4993 18H13.9994V14ZM4 8H7.99975V4H6.49984C5.83684 4 5.201 4.26339 4.73219 4.73223C4.26338 5.20107 4 5.83696 4 6.5V8ZM8.99969 8V4H12.9994V8H8.99969ZM13.9994 8V4H15.4993C16.1623 4 16.7981 4.26339 17.2669 4.73223C17.7357 5.20107 17.9991 5.83696 17.9991 6.5V8H13.9994Z" fill="#B1D0FF"/>
</g>
</svg>
