<svg width="38" height="38" viewBox="0 0 38 38" fill="none" xmlns="http://www.w3.org/2000/svg">
<g id="icon-park-outline:upload-one">
<path id="Vector" d="M9.24516 16.0479C5.75946 16.8768 3.16675 20.011 3.16675 23.75C3.16675 28.1224 6.71104 31.6667 11.0834 31.6667C11.8331 31.6667 12.5591 31.5622 13.247 31.3675M28.5436 16.0479C32.0293 16.8768 34.6212 20.011 34.6212 23.75C34.6212 28.1224 31.077 31.6667 26.7046 31.6667C25.9549 31.6667 25.2289 31.5622 24.5417 31.3675M28.5001 15.8334C28.5001 10.587 24.2465 6.33337 19.0001 6.33337C13.7537 6.33337 9.50008 10.587 9.50008 15.8334M13.5099 22.0725L19.0001 16.5649L24.6462 22.1667M19.0001 30.0834V19.3658" stroke="#363636" stroke-width="2.5" stroke-linecap="round" stroke-linejoin="round"/>
</g>
</svg>
