<svg width="24" height="24" viewBox="0 0 24 24" fill="none" xmlns="http://www.w3.org/2000/svg">
<g id="ix:customer">
<path id="Vector" fill-rule="evenodd" clip-rule="evenodd" d="M9.71813 3C11.5733 3 13.0772 4.481 13.0772 6.30791C13.0772 8.07395 11.6719 9.51676 9.90245 9.61095L9.71813 9.61587C7.86299 9.61587 6.35907 8.13487 6.35907 6.30791C6.35907 4.54191 7.76438 3.09906 9.53382 3.00487L9.71813 3ZM3 20.0123H11.4482C11.1049 19.428 10.8709 18.7877 10.7575 18.122H4.91947V16.6098L4.92447 16.4263C5.017 14.7266 6.38723 13.3964 8.03858 13.3964H11.3976L11.5735 13.4014C11.7448 13.4113 11.9127 13.4355 12.0759 13.4728C12.5611 12.9191 13.1502 12.4627 13.8109 12.1285C13.0942 11.7317 12.2719 11.5061 11.3976 11.5061H8.03858L7.83091 11.5104C5.1445 11.6207 3 13.8616 3 16.6098V20.0123ZM8.27854 6.30791C8.27854 5.52495 8.92307 4.89022 9.71813 4.89022C10.5132 4.89022 11.1577 5.52495 11.1577 6.30791C11.1577 7.09087 10.5132 7.7256 9.71813 7.7256C8.92307 7.7256 8.27854 7.09087 8.27854 6.30791ZM13.6157 21L16.4362 19.3034L19.2568 21L18.4899 17.834L21 15.7166L17.7055 15.4565L16.4362 12.4512L15.1669 15.4565L11.8724 15.7166L14.3825 17.834L13.6157 21Z" fill="#B1D0FF"/>
</g>
</svg>
