<svg width="24" height="24" viewBox="0 0 24 24" fill="none" xmlns="http://www.w3.org/2000/svg">
<g id="material-symbols:refresh-rounded">
<path id="Vector" d="M11 20C8.76667 20 6.875 19.225 5.325 17.675C3.775 16.125 3 14.2333 3 12C3 9.76667 3.775 7.875 5.325 6.325C6.875 4.775 8.76667 4 11 4C12.15 4 13.25 4.23734 14.3 4.712C15.35 5.18667 16.25 5.866 17 6.75V5C17 4.71667 17.096 4.47934 17.288 4.288C17.48 4.09667 17.7173 4.00067 18 4C18.2827 3.99934 18.5203 4.09534 18.713 4.288C18.9057 4.48067 19.0013 4.718 19 5V10C19 10.2833 18.904 10.521 18.712 10.713C18.52 10.905 18.2827 11.0007 18 11H13C12.7167 11 12.4793 10.904 12.288 10.712C12.0967 10.52 12.0007 10.2827 12 10C11.9993 9.71734 12.0953 9.48 12.288 9.288C12.4807 9.096 12.718 9 13 9H16.2C15.6667 8.06667 14.9377 7.33334 14.013 6.8C13.0883 6.26667 12.084 6 11 6C9.33333 6 7.91667 6.58334 6.75 7.75C5.58333 8.91667 5 10.3333 5 12C5 13.6667 5.58333 15.0833 6.75 16.25C7.91667 17.4167 9.33333 18 11 18C12.1333 18 13.171 17.7127 14.113 17.138C15.055 16.5633 15.784 15.7923 16.3 14.825C16.4333 14.5917 16.621 14.4293 16.863 14.338C17.105 14.2467 17.3507 14.2423 17.6 14.325C17.8667 14.4083 18.0583 14.5833 18.175 14.85C18.2917 15.1167 18.2833 15.3667 18.15 15.6C17.4667 16.9333 16.4917 18 15.225 18.8C13.9583 19.6 12.55 20 11 20Z" fill="#E1E1E1"/>
</g>
</svg>
