<svg width="18" height="18" viewBox="0 0 18 18" fill="none" xmlns="http://www.w3.org/2000/svg">
<circle cx="9" cy="9" r="9" fill="#E61B1B"/>
<path d="M8.625 13.5H6.5C6.225 13.5 5.98967 13.4022 5.794 13.2065C5.59833 13.0108 5.50033 12.7753 5.5 12.5V6H5V5H7.5V4.5H10.5V5H13V6H12.5V8.15C12.3583 8.10833 12.1938 8.07283 12.0065 8.0435C11.8192 8.01417 11.6503 7.99967 11.5 8V6H6.5V12.5H8.15C8.2 12.675 8.26667 12.848 8.35 13.019C8.43333 13.19 8.525 13.3503 8.625 13.5ZM7.5 11.5H8C8 10.975 8.08333 10.5437 8.25 10.206L8.5 9.7V7H7.5V11.5ZM9.5 8.625C9.64167 8.53333 9.80217 8.44167 9.9815 8.35C10.1608 8.25833 10.3337 8.19167 10.5 8.15V7H9.5V8.625Z" fill="white"/>
<path d="M14.5 11.75C14.5 12.4793 14.2103 13.1788 13.6945 13.6945C13.1788 14.2103 12.4793 14.5 11.75 14.5C11.0207 14.5 10.3212 14.2103 9.80546 13.6945C9.28973 13.1788 9 12.4793 9 11.75C9 11.0207 9.28973 10.3212 9.80546 9.80546C10.3212 9.28973 11.0207 9 11.75 9C12.4793 9 13.1788 9.28973 13.6945 9.80546C14.2103 10.3212 14.5 11.0207 14.5 11.75ZM10.927 10.573C10.8801 10.5261 10.8164 10.4997 10.75 10.4997C10.6836 10.4997 10.6199 10.5261 10.573 10.573C10.5261 10.6199 10.4997 10.6836 10.4997 10.75C10.4997 10.8164 10.5261 10.8801 10.573 10.927L11.3965 11.75L10.573 12.573C10.5261 12.6199 10.4997 12.6836 10.4997 12.75C10.4997 12.8164 10.5261 12.8801 10.573 12.927C10.6199 12.9739 10.6836 13.0003 10.75 13.0003C10.8164 13.0003 10.8801 12.9739 10.927 12.927L11.75 12.1035L12.573 12.927C12.5962 12.9502 12.6238 12.9687 12.6542 12.9813C12.6846 12.9938 12.7171 13.0003 12.75 13.0003C12.7829 13.0003 12.8154 12.9938 12.8458 12.9813C12.8762 12.9687 12.9038 12.9502 12.927 12.927C12.9502 12.9038 12.9687 12.8762 12.9813 12.8458C12.9938 12.8154 13.0003 12.7829 13.0003 12.75C13.0003 12.7171 12.9938 12.6846 12.9813 12.6542C12.9687 12.6238 12.9502 12.5962 12.927 12.573L12.1035 11.75L12.927 10.927C12.9739 10.8801 13.0003 10.8164 13.0003 10.75C13.0003 10.6836 12.9739 10.6199 12.927 10.573C12.8801 10.5261 12.8164 10.4997 12.75 10.4997C12.6836 10.4997 12.6199 10.5261 12.573 10.573L11.75 11.3965L10.927 10.573Z" fill="white"/>
</svg>
