<svg width="18" height="18" viewBox="0 0 18 18" fill="none" xmlns="http://www.w3.org/2000/svg">
<circle cx="9" cy="9" r="9" fill="#1BB6EA"/>
<g clip-path="url(#clip0_50_4416)">
<path d="M9 4.5H5.5C5.23478 4.5 4.98043 4.60536 4.79289 4.79289C4.60536 4.98043 4.5 5.23478 4.5 5.5V12.5C4.5 12.7652 4.60536 13.0196 4.79289 13.2071C4.98043 13.3946 5.23478 13.5 5.5 13.5H12.5C12.7652 13.5 13.0196 13.3946 13.2071 13.2071C13.3946 13.0196 13.5 12.7652 13.5 12.5V9" stroke="white" stroke-width="1.5" stroke-linecap="round" stroke-linejoin="round"/>
<path d="M12.1875 4.31249C12.3865 4.11358 12.6562 4.00183 12.9375 4.00183C13.2189 4.00183 13.4886 4.11358 13.6875 4.31249C13.8865 4.5114 13.9982 4.78119 13.9982 5.06249C13.9982 5.3438 13.8865 5.61358 13.6875 5.81249L9.18105 10.3195C9.06232 10.4381 8.91565 10.5249 8.75455 10.572L7.31805 10.992C7.27502 11.0045 7.22942 11.0053 7.186 10.9942C7.14259 10.983 7.10296 10.9605 7.07127 10.9288C7.03958 10.8971 7.01699 10.8575 7.00587 10.814C6.99475 10.7706 6.9955 10.725 7.00805 10.682L7.42805 9.24549C7.47531 9.08452 7.56231 8.93802 7.68105 8.81949L12.1875 4.31249Z" stroke="white" stroke-width="1.5" stroke-linecap="round" stroke-linejoin="round"/>
</g>
<defs>
<clipPath id="clip0_50_4416">
<rect width="12" height="12" fill="white" transform="translate(3 3)"/>
</clipPath>
</defs>
</svg>
