<svg width="12" height="9" viewBox="0 0 12 9" fill="none" xmlns="http://www.w3.org/2000/svg">
<path d="M2.91405 9C3.05046 9 3.18128 8.94311 3.27773 8.84184C3.37419 8.74057 3.42838 8.60322 3.42838 8.46V3.4416H5.67769C5.77401 3.34035 5.82811 3.2031 5.82811 3.06C5.82811 2.9169 5.77401 2.77965 5.67769 2.6784L3.27751 0.1584C3.18107 0.0572755 3.05035 0.000475159 2.91405 0.000475159C2.77776 0.000475159 2.64703 0.0572755 2.5506 0.1584L0.150416 2.6784C0.0540998 2.77965 0 2.9169 0 3.06C0 3.2031 0.0540998 3.34035 0.150416 3.4416H2.39973V8.46C2.39973 8.75808 2.63015 9 2.91405 9ZM9.08595 0C9.22235 0 9.35318 0.0568926 9.44963 0.158162C9.54608 0.259432 9.60027 0.396783 9.60027 0.54V5.5584H11.8496C11.9459 5.65965 12 5.7969 12 5.94C12 6.0831 11.9459 6.22035 11.8496 6.3216L9.4494 8.8416C9.35297 8.94273 9.22224 8.99953 9.08595 8.99953C8.94965 8.99953 8.81893 8.94273 8.72249 8.8416L6.32231 6.3216C6.22599 6.22035 6.17189 6.0831 6.17189 5.94C6.17189 5.7969 6.22599 5.65965 6.32231 5.5584H8.57162V0.54C8.57162 0.396783 8.62581 0.259432 8.72226 0.158162C8.81872 0.0568926 8.94954 0 9.08595 0Z" fill="#3F8CFE"/>
</svg>
